<svg xmlns="http://www.w3.org/2000/svg" viewBox="0 0 1200 800" font-family="ui-sans-serif, -apple-system, BlinkMacSystemFont, sans-serif">
  <defs>
    <marker id="arrow" viewBox="0 0 10 10" refX="9" refY="5" markerWidth="6" markerHeight="6" orient="auto-start-reverse">
      <path d="M 0 0 L 10 5 L 0 10 z" fill="#6b7280"/>
    </marker>
  </defs>
  <rect width="1200" height="800" fill="#ffffff"/>
  <path d="M 20 60 L 20 20 L 60 20" stroke="#d1d5db" stroke-width="1" fill="none"/>
  <path d="M 1180 60 L 1180 20 L 1140 20" stroke="#d1d5db" stroke-width="1" fill="none"/>
  <path d="M 20 740 L 20 780 L 60 780" stroke="#d1d5db" stroke-width="1" fill="none"/>
  <path d="M 1180 740 L 1180 780 L 1140 780" stroke="#d1d5db" stroke-width="1" fill="none"/>
  <text x="600" y="62" text-anchor="middle" font-size="30" font-weight="700" font-style="italic" fill="#1f2937">5 个核心命令 · 工作流</text>
  <text x="600" y="86" text-anchor="middle" font-size="13" fill="#9ca3af" letter-spacing="2">AI 助理日常协作 · lifeos-template</text>
  <ellipse cx="600" cy="400" rx="180" ry="90" fill="#dbeafe" opacity="0.22"/>
  <circle cx="520" cy="400" r="46" fill="#ffffff" stroke="#2563eb" stroke-width="1.7"/>
  <text x="520" y="395" text-anchor="middle" font-size="13" fill="#1e3a8a" font-weight="600">YOU</text>
  <text x="520" y="413" text-anchor="middle" font-size="11" fill="#6b7280">用户</text>
  <rect x="640" y="358" width="88" height="84" rx="11" fill="#ffffff" stroke="#2563eb" stroke-width="1.7"/>
  <text x="684" y="388" text-anchor="middle" font-size="14" fill="#1e3a8a" font-weight="600">AI Asst</text>
  <text x="684" y="406" text-anchor="middle" font-size="11" fill="#6b7280">你的助理</text>
  <text x="684" y="424" text-anchor="middle" font-size="9" fill="#9ca3af" font-style="italic">(Soul.md)</text>
  <path d="M 568 400 L 635 400" stroke="#6b7280" stroke-width="1.5" fill="none" marker-end="url(#arrow)" marker-start="url(#arrow)"/>
  <rect x="100" y="150" width="220" height="100" rx="10" fill="#ffffff" stroke="#ea580c" stroke-width="1.5"/>
  <text x="210" y="174" text-anchor="middle" font-size="16" font-weight="700" fill="#9a3412">/init-life-os</text>
  <text x="210" y="193" text-anchor="middle" font-size="11" fill="#6b7280">4 步访谈生成 vault</text>
  <text x="210" y="211" text-anchor="middle" font-size="10" fill="#9ca3af" font-style="italic">// 一辈子一次</text>
  <line x1="120" y1="222" x2="300" y2="222" stroke="#e5e7eb" stroke-width="0.5" stroke-dasharray="2,2"/>
  <text x="210" y="238" text-anchor="middle" font-size="10" fill="#4b5563">✏️ 写 Identity.md + Soul.md</text>
  <rect x="100" y="350" width="220" height="100" rx="10" fill="#ffffff" stroke="#2563eb" stroke-width="1.5"/>
  <text x="210" y="374" text-anchor="middle" font-size="16" font-weight="700" fill="#1e3a8a">/go</text>
  <text x="210" y="393" text-anchor="middle" font-size="11" fill="#6b7280">恢复上下文 · 今日聚焦</text>
  <text x="210" y="411" text-anchor="middle" font-size="10" fill="#9ca3af" font-style="italic">// 每次会话开始</text>
  <line x1="120" y1="422" x2="300" y2="422" stroke="#e5e7eb" stroke-width="0.5" stroke-dasharray="2,2"/>
  <text x="210" y="438" text-anchor="middle" font-size="10" fill="#4b5563">👁 读 PROGRESS.md</text>
  <rect x="100" y="550" width="220" height="100" rx="10" fill="#ffffff" stroke="#2563eb" stroke-width="1.5"/>
  <text x="210" y="574" text-anchor="middle" font-size="16" font-weight="700" fill="#1e3a8a">/today</text>
  <text x="210" y="593" text-anchor="middle" font-size="11" fill="#6b7280">今天最该做的 1-3 件事</text>
  <text x="210" y="611" text-anchor="middle" font-size="10" fill="#9ca3af" font-style="italic">// 想要更深判断时</text>
  <line x1="120" y1="622" x2="300" y2="622" stroke="#e5e7eb" stroke-width="0.5" stroke-dasharray="2,2"/>
  <text x="210" y="638" text-anchor="middle" font-size="10" fill="#4b5563">👁 读 Identity + Soul + PROGRESS</text>
  <rect x="880" y="150" width="220" height="100" rx="10" fill="#ffffff" stroke="#16a34a" stroke-width="1.5"/>
  <text x="990" y="174" text-anchor="middle" font-size="16" font-weight="700" fill="#14532d">/capture</text>
  <text x="990" y="193" text-anchor="middle" font-size="11" fill="#6b7280">提取写作素材</text>
  <text x="990" y="211" text-anchor="middle" font-size="10" fill="#9ca3af" font-style="italic">// 聊出洞察时</text>
  <line x1="900" y1="222" x2="1080" y2="222" stroke="#e5e7eb" stroke-width="0.5" stroke-dasharray="2,2"/>
  <text x="990" y="238" text-anchor="middle" font-size="10" fill="#4b5563">✏️ 写 process/&lt;project&gt;/</text>
  <rect x="880" y="550" width="220" height="100" rx="10" fill="#ffffff" stroke="#ea580c" stroke-width="1.5"/>
  <text x="990" y="574" text-anchor="middle" font-size="16" font-weight="700" fill="#9a3412">/save</text>
  <text x="990" y="593" text-anchor="middle" font-size="11" fill="#6b7280">保存进度 + AI 自检</text>
  <text x="990" y="611" text-anchor="middle" font-size="10" fill="#9ca3af" font-style="italic">// 会话结束前</text>
  <line x1="900" y1="622" x2="1080" y2="622" stroke="#e5e7eb" stroke-width="0.5" stroke-dasharray="2,2"/>
  <text x="990" y="638" text-anchor="middle" font-size="10" fill="#4b5563">✏️ 写 PROGRESS-ARCHIVE + Evolution Rules</text>
  <path d="M 320 245 Q 430 320 478 365" stroke="#9ca3af" stroke-width="1.2" fill="none" marker-end="url(#arrow)"/>
  <path d="M 320 400 L 472 400" stroke="#9ca3af" stroke-width="1.2" fill="none" marker-end="url(#arrow)"/>
  <path d="M 320 555 Q 430 475 478 435" stroke="#9ca3af" stroke-width="1.2" fill="none" marker-end="url(#arrow)"/>
  <path d="M 880 245 Q 770 320 730 365" stroke="#9ca3af" stroke-width="1.2" fill="none" marker-end="url(#arrow)"/>
  <path d="M 880 555 Q 770 475 730 435" stroke="#9ca3af" stroke-width="1.2" fill="none" marker-end="url(#arrow)"/>
  <line x1="120" y1="730" x2="1080" y2="730" stroke="#d1d5db" stroke-width="0.8"/>
  <line x1="120" y1="725" x2="120" y2="735" stroke="#d1d5db" stroke-width="0.8"/>
  <line x1="1080" y1="725" x2="1080" y2="735" stroke="#d1d5db" stroke-width="0.8"/>
  <circle cx="180" cy="730" r="4" fill="#6b7280"/>
  <text x="180" y="715" text-anchor="middle" font-size="11" fill="#4b5563" font-weight="600">init-life-os</text>
  <text x="180" y="752" text-anchor="middle" font-size="10" fill="#9ca3af" font-style="italic">一次</text>
  <circle cx="380" cy="730" r="4" fill="#6b7280"/>
  <text x="380" y="715" text-anchor="middle" font-size="11" fill="#4b5563" font-weight="600">go</text>
  <text x="380" y="752" text-anchor="middle" font-size="10" fill="#9ca3af" font-style="italic">每次开始</text>
  <circle cx="560" cy="730" r="4" fill="#6b7280"/>
  <text x="560" y="715" text-anchor="middle" font-size="11" fill="#4b5563" font-weight="600">capture</text>
  <text x="560" y="752" text-anchor="middle" font-size="10" fill="#9ca3af" font-style="italic">聊出洞察</text>
  <circle cx="740" cy="730" r="4" fill="#6b7280"/>
  <text x="740" y="715" text-anchor="middle" font-size="11" fill="#4b5563" font-weight="600">today</text>
  <text x="740" y="752" text-anchor="middle" font-size="10" fill="#9ca3af" font-style="italic">深判断</text>
  <circle cx="940" cy="730" r="4" fill="#6b7280"/>
  <text x="940" y="715" text-anchor="middle" font-size="11" fill="#4b5563" font-weight="600">save</text>
  <text x="940" y="752" text-anchor="middle" font-size="10" fill="#9ca3af" font-style="italic">结束前</text>
  <text x="60" y="734" text-anchor="start" font-size="10" fill="#9ca3af" letter-spacing="1">触发顺序 →</text>
  <text x="1100" y="775" text-anchor="end" font-size="10" fill="#9ca3af" font-style="italic">lifeos-template · v0.1 · 命令工作流</text>
</svg>